<svg id="Layer_1" data-name="Layer 1" xmlns="http://www.w3.org/2000/svg" viewBox="0 0 416.07 133.96"><defs><style>.cls-1{font-size:100px;fill:#f85e00;font-family:Helvetica;}.cls-2{fill:#485696;}</style></defs><title>kryptex_logo</title><text class="cls-1" transform="translate(65.93 85.86)">krypdex</text><path class="cls-2" d="M128.5,244.35V230.54A14.55,14.55,0,0,0,114,216H102A14.55,14.55,0,0,0,87.5,230.54v13.81A12,12,0,0,0,81,255v21a12,12,0,0,0,12,12h30a12,12,0,0,0,12-12V255A12,12,0,0,0,128.5,244.35Zm-35-13.81A8.55,8.55,0,0,1,102,222H114a8.55,8.55,0,0,1,8.54,8.54V243h-29Zm24.65,32.9h-2.39l-.52,3h6.6l-5.28,6h-2.4l-1.08,6h-6l1.11-6h-3.09l-1.07,6h-6l1.07-6H92.56l5.26-6h2.39l.48-3H94.12l5.29-6h2.4l1.07-6h6l-1,6h2.94l1.12-6h6l-1.12,6h6.64Zm-11.9,3h3l.53-3h-3.08Z" transform="translate(-81 -202.02)"/></svg>